# xmcd
#
# Track frame offsets:
#	182
#	14302
#	23822
#	37370
#	54012
#	62052
#	71500
#	89447
#	101387
#	111895
#	124497
#	139232
#	148820
#	167345
#	186432
#	197175
#	212002
#	226090
#	244057
#	255592
#	270590
#	281967
#	291565
#
# Disc length: 4098
#
# Revision: 3
# Processed by: cddbd v1.5.1PL0 Copyright (c) Steve Scherf et al.
# Submitted via: EasyCDDAExtractor 5.1.0
# Normalized: r2:DSETVAR1
#
DISCID=63100017
DTITLE=Various Artist - Anthologie De La Chanson Francaise_1956
DYEAR=1956
DGENRE=Chanson
TTITLE0=Tino Rossi - Méditerranée
TTITLE1=Tino Rossi - Ajaccio
TTITLE2=Charles Trenet - La java du diable
TTITLE3=Charles Trénet - Moi j'aime le music-hall
TTITLE4=Les soeurs Etienne - La danse du baiser
TTITLE5=R. Pierre Et J;-M. Thibaut - A Joinville le pont
TTITLE6=Jean Constantin - Les pantoufles a papa
TTITLE7=Charles Aznavour - J'aime Paris au mois de mai
TTITLE8=Charles Aznavour - On ne sait jamais
TTITLE9=Charles Aznavour - Après l'amour
TTITLE10=Edith Piaf - Les amants d'un jour
TTITLE11=Edith Piaf - L'homme a la moto
TTITLE12=Gilbert Becaud - Alors raconte
TTITLE13=Gilbert Becaud - La corrida
TTITLE14=Patachou - Avec ce soleil
TTITLE15=Patachou - La prière
TTITLE16=Georges Brassens - Auprès de mon arbre
TTITLE17=Georges Brassens - Le testament
TTITLE18=Felix Marten - La Marie Vison
TTITLE19=Eddie Constantine - L'homme et l'enfant
TTITLE20=Line Renaud - Mister banjo
TTITLE21=Lucienne Delyle - Java
TTITLE22=Dalida - Bambino
EXTD=YEAR: 1956
EXTT0=
EXTT1=
EXTT2=
EXTT3=
EXTT4=
EXTT5=
EXTT6=
EXTT7=
EXTT8=
EXTT9=
EXTT10=
EXTT11=
EXTT12=
EXTT13=
EXTT14=
EXTT15=
EXTT16=
EXTT17=
EXTT18=
EXTT19=
EXTT20=
EXTT21=
EXTT22=
PLAYORDER=
